<svg width="300" height="300" viewBox="0 0 300 300" fill="none" xmlns="http://www.w3.org/2000/svg">
<rect width="300" height="300" fill="black"/>
<mask id="path-1-outside-1_4_2" maskUnits="userSpaceOnUse" x="120" y="95" width="59" height="110" fill="black">
<rect fill="white" x="120" y="95" width="59" height="110"/>
<path d="M158.801 107.344L157.319 106.666L162.365 96.196L163.835 96.874L158.801 107.344ZM145.005 123.344L143.523 122.666L148.569 112.196L150.039 112.874L145.005 123.344ZM151.005 123.344L149.523 122.666L154.569 112.196L156.039 112.874L151.005 123.344ZM143.21 139.344L141.728 138.666L146.774 128.196L148.244 128.874L143.21 139.344ZM131.21 139.344L129.728 138.666L134.774 128.196L136.244 128.874L131.21 139.344ZM137.21 139.344L135.728 138.666L140.774 128.196L142.244 128.874L137.21 139.344ZM122.824 155.344L121.342 154.666L126.388 144.196L127.858 144.874L122.824 155.344ZM130.019 155.344L128.537 154.666L133.583 144.196L135.053 144.874L130.019 155.344ZM137.215 155.344L135.733 154.666L140.779 144.196L142.249 144.874L137.215 155.344ZM144.41 155.344L142.928 154.666L147.974 144.196L149.444 144.874L144.41 155.344ZM151.605 155.344L150.123 154.666L155.169 144.196L156.639 144.874L151.605 155.344ZM158.801 155.344L157.319 154.666L162.365 144.196L163.835 144.874L158.801 155.344ZM165.996 155.344L164.514 154.666L169.56 144.196L171.03 144.874L165.996 155.344ZM173.191 155.344L171.709 154.666L176.755 144.196L178.225 144.874L173.191 155.344ZM164.796 171.344L163.314 170.666L168.36 160.196L169.83 160.874L164.796 171.344ZM152.796 171.344L151.314 170.666L156.36 160.196L157.83 160.874L152.796 171.344ZM158.796 171.344L157.314 170.666L162.36 160.196L163.83 160.874L158.796 171.344ZM145.005 187.344L143.523 186.666L148.569 176.196L150.039 176.874L145.005 187.344ZM151.005 187.344L149.523 186.666L154.569 176.196L156.039 176.874L151.005 187.344ZM137.215 203.344L135.733 202.666L140.779 192.196L142.249 192.874L137.215 203.344Z"/>
</mask>
<path d="M158.801 107.344L157.319 106.666L162.365 96.196L163.835 96.874L158.801 107.344ZM145.005 123.344L143.523 122.666L148.569 112.196L150.039 112.874L145.005 123.344ZM151.005 123.344L149.523 122.666L154.569 112.196L156.039 112.874L151.005 123.344ZM143.21 139.344L141.728 138.666L146.774 128.196L148.244 128.874L143.21 139.344ZM131.21 139.344L129.728 138.666L134.774 128.196L136.244 128.874L131.21 139.344ZM137.21 139.344L135.728 138.666L140.774 128.196L142.244 128.874L137.21 139.344ZM122.824 155.344L121.342 154.666L126.388 144.196L127.858 144.874L122.824 155.344ZM130.019 155.344L128.537 154.666L133.583 144.196L135.053 144.874L130.019 155.344ZM137.215 155.344L135.733 154.666L140.779 144.196L142.249 144.874L137.215 155.344ZM144.41 155.344L142.928 154.666L147.974 144.196L149.444 144.874L144.41 155.344ZM151.605 155.344L150.123 154.666L155.169 144.196L156.639 144.874L151.605 155.344ZM158.801 155.344L157.319 154.666L162.365 144.196L163.835 144.874L158.801 155.344ZM165.996 155.344L164.514 154.666L169.56 144.196L171.03 144.874L165.996 155.344ZM173.191 155.344L171.709 154.666L176.755 144.196L178.225 144.874L173.191 155.344ZM164.796 171.344L163.314 170.666L168.36 160.196L169.83 160.874L164.796 171.344ZM152.796 171.344L151.314 170.666L156.36 160.196L157.83 160.874L152.796 171.344ZM158.796 171.344L157.314 170.666L162.36 160.196L163.83 160.874L158.796 171.344ZM145.005 187.344L143.523 186.666L148.569 176.196L150.039 176.874L145.005 187.344ZM151.005 187.344L149.523 186.666L154.569 176.196L156.039 176.874L151.005 187.344ZM137.215 203.344L135.733 202.666L140.779 192.196L142.249 192.874L137.215 203.344Z" fill="#B6D600"/>
<path d="M158.801 107.344L158.593 107.799L159.039 108.003L159.251 107.561L158.801 107.344ZM157.319 106.666L156.868 106.449L156.647 106.908L157.111 107.121L157.319 106.666ZM162.365 96.196L162.574 95.742L162.128 95.5361L161.914 95.9789L162.365 96.196ZM163.835 96.874L164.285 97.0907L164.505 96.6328L164.044 96.42L163.835 96.874ZM158.801 107.344L159.009 106.889L157.527 106.211L157.319 106.666L157.111 107.121L158.593 107.799L158.801 107.344ZM157.319 106.666L157.769 106.883L162.815 96.4131L162.365 96.196L161.914 95.9789L156.868 106.449L157.319 106.666ZM162.365 96.196L162.155 96.65L163.625 97.328L163.835 96.874L164.044 96.42L162.574 95.742L162.365 96.196ZM163.835 96.874L163.384 96.6573L158.35 107.127L158.801 107.344L159.251 107.561L164.285 97.0907L163.835 96.874ZM145.005 123.344L144.797 123.799L145.243 124.003L145.456 123.561L145.005 123.344ZM143.523 122.666L143.073 122.449L142.851 122.908L143.315 123.121L143.523 122.666ZM148.569 112.196L148.779 111.742L148.332 111.536L148.119 111.979L148.569 112.196ZM150.039 112.874L150.49 113.091L150.71 112.633L150.249 112.42L150.039 112.874ZM151.005 123.344L150.797 123.799L151.243 124.003L151.456 123.561L151.005 123.344ZM149.523 122.666L149.073 122.449L148.851 122.908L149.315 123.121L149.523 122.666ZM154.569 112.196L154.779 111.742L154.332 111.536L154.119 111.979L154.569 112.196ZM156.039 112.874L156.49 113.091L156.71 112.633L156.249 112.42L156.039 112.874ZM145.005 123.344L145.213 122.889L143.731 122.211L143.523 122.666L143.315 123.121L144.797 123.799L145.005 123.344ZM143.523 122.666L143.974 122.883L149.02 112.413L148.569 112.196L148.119 111.979L143.073 122.449L143.523 122.666ZM148.569 112.196L148.36 112.65L149.83 113.328L150.039 112.874L150.249 112.42L148.779 111.742L148.569 112.196ZM150.039 112.874L149.589 112.657L144.555 123.127L145.005 123.344L145.456 123.561L150.49 113.091L150.039 112.874ZM151.005 123.344L151.213 122.889L149.731 122.211L149.523 122.666L149.315 123.121L150.797 123.799L151.005 123.344ZM149.523 122.666L149.974 122.883L155.02 112.413L154.569 112.196L154.119 111.979L149.073 122.449L149.523 122.666ZM154.569 112.196L154.36 112.65L155.83 113.328L156.039 112.874L156.249 112.42L154.779 111.742L154.569 112.196ZM156.039 112.874L155.589 112.657L150.555 123.127L151.005 123.344L151.456 123.561L156.49 113.091L156.039 112.874ZM143.21 139.344L143.002 139.799L143.448 140.003L143.661 139.561L143.21 139.344ZM141.728 138.666L141.278 138.449L141.056 138.908L141.52 139.121L141.728 138.666ZM146.774 128.196L146.983 127.742L146.537 127.536L146.324 127.979L146.774 128.196ZM148.244 128.874L148.695 129.091L148.915 128.633L148.453 128.42L148.244 128.874ZM131.21 139.344L131.002 139.799L131.448 140.003L131.661 139.561L131.21 139.344ZM129.728 138.666L129.278 138.449L129.056 138.908L129.52 139.121L129.728 138.666ZM134.774 128.196L134.983 127.742L134.537 127.536L134.324 127.979L134.774 128.196ZM136.244 128.874L136.695 129.091L136.915 128.633L136.453 128.42L136.244 128.874ZM137.21 139.344L137.002 139.799L137.448 140.003L137.661 139.561L137.21 139.344ZM135.728 138.666L135.278 138.449L135.056 138.908L135.52 139.121L135.728 138.666ZM140.774 128.196L140.983 127.742L140.537 127.536L140.324 127.979L140.774 128.196ZM142.244 128.874L142.695 129.091L142.915 128.633L142.453 128.42L142.244 128.874ZM143.21 139.344L143.418 138.889L141.936 138.211L141.728 138.666L141.52 139.121L143.002 139.799L143.21 139.344ZM141.728 138.666L142.178 138.883L147.224 128.413L146.774 128.196L146.324 127.979L141.278 138.449L141.728 138.666ZM146.774 128.196L146.565 128.65L148.035 129.328L148.244 128.874L148.453 128.42L146.983 127.742L146.774 128.196ZM148.244 128.874L147.793 128.657L142.759 139.127L143.21 139.344L143.661 139.561L148.695 129.091L148.244 128.874ZM131.21 139.344L131.418 138.889L129.936 138.211L129.728 138.666L129.52 139.121L131.002 139.799L131.21 139.344ZM129.728 138.666L130.178 138.883L135.224 128.413L134.774 128.196L134.324 127.979L129.278 138.449L129.728 138.666ZM134.774 128.196L134.565 128.65L136.035 129.328L136.244 128.874L136.453 128.42L134.983 127.742L134.774 128.196ZM136.244 128.874L135.793 128.657L130.759 139.127L131.21 139.344L131.661 139.561L136.695 129.091L136.244 128.874ZM137.21 139.344L137.418 138.889L135.936 138.211L135.728 138.666L135.52 139.121L137.002 139.799L137.21 139.344ZM135.728 138.666L136.178 138.883L141.224 128.413L140.774 128.196L140.324 127.979L135.278 138.449L135.728 138.666ZM140.774 128.196L140.565 128.65L142.035 129.328L142.244 128.874L142.453 128.42L140.983 127.742L140.774 128.196ZM142.244 128.874L141.793 128.657L136.759 139.127L137.21 139.344L137.661 139.561L142.695 129.091L142.244 128.874ZM122.824 155.344L122.616 155.799L123.062 156.003L123.275 155.561L122.824 155.344ZM121.342 154.666L120.892 154.449L120.67 154.908L121.134 155.121L121.342 154.666ZM126.388 144.196L126.597 143.742L126.151 143.536L125.938 143.979L126.388 144.196ZM127.858 144.874L128.309 145.091L128.529 144.633L128.067 144.42L127.858 144.874ZM122.824 155.344L123.032 154.889L121.55 154.211L121.342 154.666L121.134 155.121L122.616 155.799L122.824 155.344ZM121.342 154.666L121.792 154.883L126.838 144.413L126.388 144.196L125.938 143.979L120.892 154.449L121.342 154.666ZM126.388 144.196L126.179 144.65L127.649 145.328L127.858 144.874L128.067 144.42L126.597 143.742L126.388 144.196ZM127.858 144.874L127.407 144.657L122.373 155.127L122.824 155.344L123.275 155.561L128.309 145.091L127.858 144.874ZM130.019 155.344L129.811 155.799L130.257 156.003L130.47 155.561L130.019 155.344ZM128.537 154.666L128.087 154.449L127.865 154.908L128.329 155.121L128.537 154.666ZM133.583 144.196L133.793 143.742L133.346 143.536L133.133 143.979L133.583 144.196ZM135.053 144.874L135.504 145.091L135.724 144.633L135.263 144.42L135.053 144.874ZM130.019 155.344L130.227 154.889L128.745 154.211L128.537 154.666L128.329 155.121L129.811 155.799L130.019 155.344ZM128.537 154.666L128.988 154.883L134.034 144.413L133.583 144.196L133.133 143.979L128.087 154.449L128.537 154.666ZM133.583 144.196L133.374 144.65L134.844 145.328L135.053 144.874L135.263 144.42L133.793 143.742L133.583 144.196ZM135.053 144.874L134.603 144.657L129.569 155.127L130.019 155.344L130.47 155.561L135.504 145.091L135.053 144.874ZM137.215 155.344L137.007 155.799L137.453 156.003L137.665 155.561L137.215 155.344ZM135.733 154.666L135.282 154.449L135.061 154.908L135.525 155.121L135.733 154.666ZM140.779 144.196L140.988 143.742L140.542 143.536L140.328 143.979L140.779 144.196ZM142.249 144.874L142.699 145.091L142.919 144.633L142.458 144.42L142.249 144.874ZM137.215 155.344L137.423 154.889L135.941 154.211L135.733 154.666L135.525 155.121L137.007 155.799L137.215 155.344ZM135.733 154.666L136.183 154.883L141.229 144.413L140.779 144.196L140.328 143.979L135.282 154.449L135.733 154.666ZM140.779 144.196L140.569 144.65L142.039 145.328L142.249 144.874L142.458 144.42L140.988 143.742L140.779 144.196ZM142.249 144.874L141.798 144.657L136.764 155.127L137.215 155.344L137.665 155.561L142.699 145.091L142.249 144.874ZM144.41 155.344L144.202 155.799L144.648 156.003L144.861 155.561L144.41 155.344ZM142.928 154.666L142.478 154.449L142.256 154.908L142.72 155.121L142.928 154.666ZM147.974 144.196L148.183 143.742L147.737 143.536L147.524 143.979L147.974 144.196ZM149.444 144.874L149.895 145.091L150.115 144.633L149.653 144.42L149.444 144.874ZM144.41 155.344L144.618 154.889L143.136 154.211L142.928 154.666L142.72 155.121L144.202 155.799L144.41 155.344ZM142.928 154.666L143.378 154.883L148.424 144.413L147.974 144.196L147.524 143.979L142.478 154.449L142.928 154.666ZM147.974 144.196L147.765 144.65L149.235 145.328L149.444 144.874L149.653 144.42L148.183 143.742L147.974 144.196ZM149.444 144.874L148.993 144.657L143.959 155.127L144.41 155.344L144.861 155.561L149.895 145.091L149.444 144.874ZM151.605 155.344L151.397 155.799L151.843 156.003L152.056 155.561L151.605 155.344ZM150.123 154.666L149.673 154.449L149.451 154.908L149.915 155.121L150.123 154.666ZM155.169 144.196L155.379 143.742L154.932 143.536L154.719 143.979L155.169 144.196ZM156.639 144.874L157.09 145.091L157.31 144.633L156.849 144.42L156.639 144.874ZM151.605 155.344L151.813 154.889L150.331 154.211L150.123 154.666L149.915 155.121L151.397 155.799L151.605 155.344ZM150.123 154.666L150.574 154.883L155.62 144.413L155.169 144.196L154.719 143.979L149.673 154.449L150.123 154.666ZM155.169 144.196L154.96 144.65L156.43 145.328L156.639 144.874L156.849 144.42L155.379 143.742L155.169 144.196ZM156.639 144.874L156.189 144.657L151.155 155.127L151.605 155.344L152.056 155.561L157.09 145.091L156.639 144.874ZM158.801 155.344L158.593 155.799L159.039 156.003L159.251 155.561L158.801 155.344ZM157.319 154.666L156.868 154.449L156.647 154.908L157.111 155.121L157.319 154.666ZM162.365 144.196L162.574 143.742L162.128 143.536L161.914 143.979L162.365 144.196ZM163.835 144.874L164.285 145.091L164.505 144.633L164.044 144.42L163.835 144.874ZM158.801 155.344L159.009 154.889L157.527 154.211L157.319 154.666L157.111 155.121L158.593 155.799L158.801 155.344ZM157.319 154.666L157.769 154.883L162.815 144.413L162.365 144.196L161.914 143.979L156.868 154.449L157.319 154.666ZM162.365 144.196L162.155 144.65L163.625 145.328L163.835 144.874L164.044 144.42L162.574 143.742L162.365 144.196ZM163.835 144.874L163.384 144.657L158.35 155.127L158.801 155.344L159.251 155.561L164.285 145.091L163.835 144.874ZM165.996 155.344L165.788 155.799L166.234 156.003L166.446 155.561L165.996 155.344ZM164.514 154.666L164.063 154.449L163.842 154.908L164.306 155.121L164.514 154.666ZM169.56 144.196L169.769 143.742L169.323 143.536L169.109 143.979L169.56 144.196ZM171.03 144.874L171.48 145.091L171.701 144.633L171.239 144.42L171.03 144.874ZM165.996 155.344L166.204 154.889L164.722 154.211L164.514 154.666L164.306 155.121L165.788 155.799L165.996 155.344ZM164.514 154.666L164.964 154.883L170.01 144.413L169.56 144.196L169.109 143.979L164.063 154.449L164.514 154.666ZM169.56 144.196L169.35 144.65L170.82 145.328L171.03 144.874L171.239 144.42L169.769 143.742L169.56 144.196ZM171.03 144.874L170.579 144.657L165.545 155.127L165.996 155.344L166.446 155.561L171.48 145.091L171.03 144.874ZM173.191 155.344L172.983 155.799L173.429 156.003L173.642 155.561L173.191 155.344ZM171.709 154.666L171.259 154.449L171.037 154.908L171.501 155.121L171.709 154.666ZM176.755 144.196L176.965 143.742L176.518 143.536L176.305 143.979L176.755 144.196ZM178.225 144.874L178.676 145.091L178.896 144.633L178.435 144.42L178.225 144.874ZM173.191 155.344L173.399 154.889L171.917 154.211L171.709 154.666L171.501 155.121L172.983 155.799L173.191 155.344ZM171.709 154.666L172.16 154.883L177.206 144.413L176.755 144.196L176.305 143.979L171.259 154.449L171.709 154.666ZM176.755 144.196L176.546 144.65L178.016 145.328L178.225 144.874L178.435 144.42L176.965 143.742L176.755 144.196ZM178.225 144.874L177.775 144.657L172.741 155.127L173.191 155.344L173.642 155.561L178.676 145.091L178.225 144.874ZM164.796 171.344L164.588 171.799L165.034 172.003L165.246 171.561L164.796 171.344ZM163.314 170.666L162.863 170.449L162.642 170.908L163.106 171.121L163.314 170.666ZM168.36 160.196L168.569 159.742L168.123 159.536L167.909 159.979L168.36 160.196ZM169.83 160.874L170.28 161.091L170.501 160.633L170.039 160.42L169.83 160.874ZM152.796 171.344L152.588 171.799L153.034 172.003L153.246 171.561L152.796 171.344ZM151.314 170.666L150.863 170.449L150.642 170.908L151.106 171.121L151.314 170.666ZM156.36 160.196L156.569 159.742L156.123 159.536L155.909 159.979L156.36 160.196ZM157.83 160.874L158.28 161.091L158.501 160.633L158.039 160.42L157.83 160.874ZM158.796 171.344L158.588 171.799L159.034 172.003L159.246 171.561L158.796 171.344ZM157.314 170.666L156.863 170.449L156.642 170.908L157.106 171.121L157.314 170.666ZM162.36 160.196L162.569 159.742L162.123 159.536L161.909 159.979L162.36 160.196ZM163.83 160.874L164.28 161.091L164.501 160.633L164.039 160.42L163.83 160.874ZM164.796 171.344L165.004 170.889L163.522 170.211L163.314 170.666L163.106 171.121L164.588 171.799L164.796 171.344ZM163.314 170.666L163.764 170.883L168.81 160.413L168.36 160.196L167.909 159.979L162.863 170.449L163.314 170.666ZM168.36 160.196L168.15 160.65L169.62 161.328L169.83 160.874L170.039 160.42L168.569 159.742L168.36 160.196ZM169.83 160.874L169.379 160.657L164.345 171.127L164.796 171.344L165.246 171.561L170.28 161.091L169.83 160.874ZM152.796 171.344L153.004 170.889L151.522 170.211L151.314 170.666L151.106 171.121L152.588 171.799L152.796 171.344ZM151.314 170.666L151.764 170.883L156.81 160.413L156.36 160.196L155.909 159.979L150.863 170.449L151.314 170.666ZM156.36 160.196L156.15 160.65L157.62 161.328L157.83 160.874L158.039 160.42L156.569 159.742L156.36 160.196ZM157.83 160.874L157.379 160.657L152.345 171.127L152.796 171.344L153.246 171.561L158.28 161.091L157.83 160.874ZM158.796 171.344L159.004 170.889L157.522 170.211L157.314 170.666L157.106 171.121L158.588 171.799L158.796 171.344ZM157.314 170.666L157.764 170.883L162.81 160.413L162.36 160.196L161.909 159.979L156.863 170.449L157.314 170.666ZM162.36 160.196L162.15 160.65L163.62 161.328L163.83 160.874L164.039 160.42L162.569 159.742L162.36 160.196ZM163.83 160.874L163.379 160.657L158.345 171.127L158.796 171.344L159.246 171.561L164.28 161.091L163.83 160.874ZM145.005 187.344L144.797 187.799L145.243 188.003L145.456 187.561L145.005 187.344ZM143.523 186.666L143.073 186.449L142.851 186.908L143.315 187.121L143.523 186.666ZM148.569 176.196L148.779 175.742L148.332 175.536L148.119 175.979L148.569 176.196ZM150.039 176.874L150.49 177.091L150.71 176.633L150.249 176.42L150.039 176.874ZM151.005 187.344L150.797 187.799L151.243 188.003L151.456 187.561L151.005 187.344ZM149.523 186.666L149.073 186.449L148.851 186.908L149.315 187.121L149.523 186.666ZM154.569 176.196L154.779 175.742L154.332 175.536L154.119 175.979L154.569 176.196ZM156.039 176.874L156.49 177.091L156.71 176.633L156.249 176.42L156.039 176.874ZM145.005 187.344L145.213 186.889L143.731 186.211L143.523 186.666L143.315 187.121L144.797 187.799L145.005 187.344ZM143.523 186.666L143.974 186.883L149.02 176.413L148.569 176.196L148.119 175.979L143.073 186.449L143.523 186.666ZM148.569 176.196L148.36 176.65L149.83 177.328L150.039 176.874L150.249 176.42L148.779 175.742L148.569 176.196ZM150.039 176.874L149.589 176.657L144.555 187.127L145.005 187.344L145.456 187.561L150.49 177.091L150.039 176.874ZM151.005 187.344L151.213 186.889L149.731 186.211L149.523 186.666L149.315 187.121L150.797 187.799L151.005 187.344ZM149.523 186.666L149.974 186.883L155.02 176.413L154.569 176.196L154.119 175.979L149.073 186.449L149.523 186.666ZM154.569 176.196L154.36 176.65L155.83 177.328L156.039 176.874L156.249 176.42L154.779 175.742L154.569 176.196ZM156.039 176.874L155.589 176.657L150.555 187.127L151.005 187.344L151.456 187.561L156.49 177.091L156.039 176.874ZM137.215 203.344L137.007 203.799L137.453 204.003L137.665 203.561L137.215 203.344ZM135.733 202.666L135.282 202.449L135.061 202.908L135.525 203.121L135.733 202.666ZM140.779 192.196L140.988 191.742L140.542 191.536L140.328 191.979L140.779 192.196ZM142.249 192.874L142.699 193.091L142.919 192.633L142.458 192.42L142.249 192.874ZM137.215 203.344L137.423 202.889L135.941 202.211L135.733 202.666L135.525 203.121L137.007 203.799L137.215 203.344ZM135.733 202.666L136.183 202.883L141.229 192.413L140.779 192.196L140.328 191.979L135.282 202.449L135.733 202.666ZM140.779 192.196L140.569 192.65L142.039 193.328L142.249 192.874L142.458 192.42L140.988 191.742L140.779 192.196ZM142.249 192.874L141.798 192.657L136.764 203.127L137.215 203.344L137.665 203.561L142.699 193.091L142.249 192.874Z" fill="#B6D600" mask="url(#path-1-outside-1_4_2)"/>
</svg>
