<svg width="248" height="147" viewBox="0 0 248 147" fill="none" xmlns="http://www.w3.org/2000/svg">
<path d="M99.1391 32.178V31.296H105.859V32.178H99.1391ZM105.614 32.178V31.296H113.054V32.178H105.614ZM112.81 32.178V31.296H119.53V32.178H112.81ZM149.506 32.178V31.296H156.226V32.178H149.506ZM155.982 32.178V31.296H163.422V32.178H155.982ZM163.177 32.178V31.296H170.617V32.178H163.177ZM170.372 32.178V31.296H177.092V32.178H170.372ZM192.678 32.178V31.296H199.398V32.178H192.678ZM199.153 32.178V31.296H206.593V32.178H199.153ZM206.349 32.178V31.296H213.789V32.178H206.349ZM213.544 32.178V31.296H220.984V32.178H213.544ZM220.739 32.178V31.296H228.179V32.178H220.739ZM227.935 32.178V31.296H234.655V32.178H227.935ZM92.7898 47.236L91.9738 46.876L97.1098 36.286L97.9138 36.682L92.7898 47.236ZM124.175 35.2V49.6H123.275V35.2H124.175ZM143.157 47.236L142.341 46.876L147.477 36.286L148.281 36.682L143.157 47.236ZM156.702 48.178V47.296H163.422V48.178H156.702ZM163.177 48.178V47.296H169.897V48.178H163.177ZM185.549 46H184.217L180.209 37.738H181.295L184.883 45.082L188.465 37.738H189.557L185.549 46ZM199.873 48.178V47.296H206.593V48.178H199.873ZM206.349 48.178V47.296H213.789V48.178H206.349ZM213.544 48.178V47.296H220.984V48.178H213.544ZM220.739 48.178V47.296H227.459V48.178H220.739ZM229.501 47.236L228.685 46.876L233.821 36.286L234.625 36.682L229.501 47.236ZM85.5944 63.236L84.7784 62.876L89.9144 52.286L90.7184 52.682L85.5944 63.236ZM99.9851 63.236L99.1691 62.876L104.305 52.286L105.109 52.682L99.9851 63.236ZM109.784 51.2V65.6H108.884V51.2H109.784ZM124.175 51.2V65.6H123.275V51.2H124.175ZM135.962 63.236L135.146 62.876L140.282 52.286L141.086 52.682L135.962 63.236ZM150.352 63.236L149.536 62.876L154.672 52.286L155.476 52.682L150.352 63.236ZM156.702 64.178V63.296H162.702V64.178H156.702ZM164.743 63.236L163.927 62.876L169.063 52.286L169.867 52.682L164.743 63.236ZM179.134 63.236L178.318 62.876L183.454 52.286L184.258 52.682L179.134 63.236ZM193.524 63.236L192.708 62.876L197.844 52.286L198.648 52.682L193.524 63.236ZM78.3991 79.236L77.5831 78.876L82.7191 68.286L83.5231 68.682L78.3991 79.236ZM91.9438 80.178V79.296H98.6638V80.178H91.9438ZM98.4191 80.178V79.296H105.859V80.178H98.4191ZM105.614 80.178V79.296H112.334V80.178H105.614ZM124.175 67.2V81.6H123.275V67.2H124.175ZM128.766 79.236L127.95 78.876L133.086 68.286L133.89 68.682L128.766 79.236ZM142.311 80.178V79.296H148.311V80.178H142.311ZM152.506 76.026C152.782 76.026 153.012 76.12 153.196 76.308C153.384 76.496 153.478 76.722 153.478 76.986C153.478 77.13 153.46 77.276 153.424 77.424C153.392 77.572 153.332 77.74 153.244 77.928L152.272 80.154H151.36L151.936 77.784C151.816 77.696 151.72 77.582 151.648 77.442C151.58 77.298 151.546 77.146 151.546 76.986C151.546 76.718 151.638 76.492 151.822 76.308C152.006 76.12 152.234 76.026 152.506 76.026ZM163.897 80.178V79.296H169.897V80.178H163.897ZM171.938 79.236L171.122 78.876L176.258 68.286L177.062 68.682L171.938 79.236ZM186.329 79.236L185.513 78.876L190.649 68.286L191.453 68.682L186.329 79.236ZM192.678 80.178V79.296H199.398V80.178H192.678ZM199.153 80.178V79.296H206.593V80.178H199.153ZM206.349 80.178V79.296H213.069V80.178H206.349ZM71.2038 95.236L70.3878 94.876L75.5238 84.286L76.3278 84.682L71.2038 95.236ZM77.5531 96.178V95.296H83.5531V96.178H77.5531ZM85.5944 95.236L84.7784 94.876L89.9144 84.286L90.7184 84.682L85.5944 95.236ZM109.784 83.2V97.6H108.884V83.2H109.784ZM113.53 96.178V95.296H119.53V96.178H113.53ZM121.571 95.236L120.755 94.876L125.891 84.286L126.695 84.682L121.571 95.236ZM127.92 96.178V95.296H133.92V96.178H127.92ZM135.962 95.236L135.146 94.876L140.282 84.286L141.086 84.682L135.962 95.236ZM152.956 83.2V97.6H152.056V83.2H152.956ZM156.702 96.178V95.296H162.702V96.178H156.702ZM167.347 83.2V97.6H166.447V83.2H167.347ZM171.122 84.682L171.926 84.286L177.062 94.876L176.246 95.236L171.122 84.682ZM178.288 96.178V95.296H185.008V96.178H178.288ZM184.763 96.178V95.296H192.203V96.178H184.763ZM191.958 96.178V95.296H199.398V96.178H191.958ZM199.153 96.178V95.296H205.873V96.178H199.153ZM207.915 95.236L207.099 94.876L212.235 84.286L213.039 84.682L207.915 95.236Z" fill="white"/>
<path d="M42.4226 31.236L41.6066 30.876L46.7426 20.286L47.5466 20.682L42.4226 31.236ZM28.6272 47.236L27.8112 46.876L32.9472 36.286L33.7512 36.682L28.6272 47.236ZM34.6273 47.236L33.8113 46.876L38.9473 36.286L39.7513 36.682L34.6273 47.236ZM26.8319 63.236L26.0159 62.876L31.1519 52.286L31.9559 52.682L26.8319 63.236ZM14.8319 63.236L14.0159 62.876L19.1519 52.286L19.9559 52.682L14.8319 63.236ZM20.8319 63.236L20.0159 62.876L25.1519 52.286L25.9559 52.682L20.8319 63.236ZM6.446 79.236L5.63 78.876L10.766 68.286L11.57 68.682L6.446 79.236ZM13.6413 79.236L12.8253 78.876L17.9613 68.286L18.7653 68.682L13.6413 79.236ZM20.8366 79.236L20.0206 78.876L25.1566 68.286L25.9606 68.682L20.8366 79.236ZM28.0319 79.236L27.2159 78.876L32.3519 68.286L33.1559 68.682L28.0319 79.236ZM35.2273 79.236L34.4113 78.876L39.5473 68.286L40.3513 68.682L35.2273 79.236ZM42.4226 79.236L41.6066 78.876L46.7426 68.286L47.5466 68.682L42.4226 79.236ZM49.6179 79.236L48.8019 78.876L53.9379 68.286L54.7419 68.682L49.6179 79.236ZM56.8132 79.236L55.9972 78.876L61.1332 68.286L61.9372 68.682L56.8132 79.236ZM48.4179 95.236L47.6019 94.876L52.7379 84.286L53.5419 84.682L48.4179 95.236ZM36.4179 95.236L35.6019 94.876L40.7379 84.286L41.5419 84.682L36.4179 95.236ZM42.4179 95.236L41.6019 94.876L46.7379 84.286L47.5419 84.682L42.4179 95.236ZM28.6272 111.236L27.8112 110.876L32.9472 100.286L33.7512 100.682L28.6272 111.236ZM34.6273 111.236L33.8113 110.876L38.9473 100.286L39.7513 100.682L34.6273 111.236ZM20.8366 127.236L20.0206 126.876L25.1566 116.286L25.9606 116.682L20.8366 127.236Z" fill="#B6D600"/>
<path d="M76.0878 101.738V107.324C76.0878 107.88 75.9738 108.37 75.7458 108.794C75.5218 109.218 75.2038 109.548 74.7918 109.784C74.3838 110.02 73.9018 110.138 73.3458 110.138C72.7778 110.138 72.2898 110.02 71.8818 109.784C71.4778 109.544 71.1678 109.212 70.9518 108.788C70.7358 108.364 70.6278 107.876 70.6278 107.324V101.738H71.6598V107.36C71.6598 107.988 71.8058 108.458 72.0978 108.77C72.3938 109.082 72.8098 109.238 73.3458 109.238C73.8858 109.238 74.3018 109.082 74.5938 108.77C74.8898 108.458 75.0378 107.988 75.0378 107.36V101.738H76.0878ZM78.1591 110V103.682H79.0171L79.0951 104.558C79.3511 104.234 79.6711 103.986 80.0551 103.814C80.4431 103.638 80.8191 103.55 81.1831 103.55C81.8031 103.55 82.2531 103.714 82.5331 104.042C82.8171 104.37 82.9591 104.826 82.9591 105.41V110H81.9511V106.154C81.9511 105.722 81.9271 105.374 81.8791 105.11C81.8311 104.842 81.7311 104.648 81.5791 104.528C81.4271 104.404 81.1911 104.342 80.8711 104.342C80.6231 104.342 80.3891 104.396 80.1691 104.504C79.9531 104.612 79.7591 104.748 79.5871 104.912C79.4191 105.072 79.2791 105.234 79.1671 105.398V110H78.1591ZM88.5524 103.682V109.202H90.3344V110H85.5944V109.202H87.5444V104.48H85.6544V103.682H88.5524ZM87.7484 100.724C87.9724 100.724 88.1504 100.792 88.2824 100.928C88.4184 101.064 88.4864 101.23 88.4864 101.426C88.4864 101.63 88.4184 101.802 88.2824 101.942C88.1504 102.078 87.9724 102.146 87.7484 102.146C87.5364 102.146 87.3624 102.078 87.2264 101.942C87.0904 101.802 87.0224 101.63 87.0224 101.426C87.0224 101.23 87.0904 101.064 87.2264 100.928C87.3624 100.792 87.5364 100.724 87.7484 100.724ZM96.2818 101.012C96.6218 101.012 96.9298 101.042 97.2058 101.102C97.4818 101.162 97.7438 101.246 97.9918 101.354L97.6678 102.104C97.4638 102.016 97.2478 101.95 97.0198 101.906C96.7918 101.862 96.5558 101.84 96.3118 101.84C95.8718 101.84 95.5398 101.926 95.3158 102.098C95.0958 102.27 94.9858 102.534 94.9858 102.89V104.174H97.1278L97.0198 104.966H94.9858V110H93.9778V104.966H92.4718V104.174H93.9778V102.914C93.9778 102.522 94.0778 102.184 94.2778 101.9C94.4818 101.616 94.7578 101.398 95.1058 101.246C95.4538 101.09 95.8458 101.012 96.2818 101.012ZM102.943 104.174V109.202H104.725V110H99.9851V109.202H101.935V104.966H100.045V104.174H102.943ZM102.139 101.162C102.363 101.162 102.541 101.23 102.673 101.366C102.809 101.502 102.877 101.668 102.877 101.864C102.877 102.068 102.809 102.24 102.673 102.38C102.541 102.516 102.363 102.584 102.139 102.584C101.927 102.584 101.753 102.516 101.617 102.38C101.481 102.24 101.413 102.068 101.413 101.864C101.413 101.668 101.481 101.502 101.617 101.366C101.753 101.23 101.927 101.162 102.139 101.162ZM107.732 107.198C107.752 107.686 107.846 108.086 108.014 108.398C108.182 108.706 108.404 108.934 108.68 109.082C108.956 109.226 109.256 109.298 109.58 109.298C109.904 109.298 110.196 109.25 110.456 109.154C110.72 109.058 110.99 108.916 111.266 108.728L111.74 109.394C111.444 109.626 111.106 109.808 110.726 109.94C110.35 110.072 109.964 110.138 109.568 110.138C108.956 110.138 108.434 110 108.002 109.724C107.57 109.448 107.24 109.064 107.012 108.572C106.788 108.076 106.676 107.502 106.676 106.85C106.676 106.21 106.79 105.642 107.018 105.146C107.246 104.65 107.566 104.26 107.978 103.976C108.39 103.692 108.876 103.55 109.436 103.55C109.968 103.55 110.426 103.676 110.81 103.928C111.194 104.176 111.488 104.532 111.692 104.996C111.9 105.456 112.004 106.006 112.004 106.646C112.004 106.754 112.002 106.856 111.998 106.952C111.994 107.044 111.988 107.126 111.98 107.198H107.732ZM109.448 104.378C108.98 104.378 108.588 104.544 108.272 104.876C107.96 105.208 107.782 105.722 107.738 106.418H111.032C111.02 105.742 110.872 105.234 110.588 104.894C110.304 104.55 109.924 104.378 109.448 104.378ZM117.916 101.012L118.924 101.138V110H118.042L117.946 109.166C117.71 109.502 117.438 109.748 117.13 109.904C116.826 110.06 116.5 110.138 116.152 110.138C115.604 110.138 115.152 110 114.796 109.724C114.44 109.448 114.176 109.064 114.004 108.572C113.832 108.076 113.746 107.502 113.746 106.85C113.746 106.218 113.844 105.654 114.04 105.158C114.236 104.658 114.518 104.266 114.886 103.982C115.258 103.694 115.704 103.55 116.224 103.55C116.588 103.55 116.908 103.614 117.184 103.742C117.46 103.866 117.704 104.05 117.916 104.294V101.012ZM116.488 104.36C115.96 104.36 115.554 104.566 115.27 104.978C114.986 105.39 114.844 106.014 114.844 106.85C114.844 107.394 114.902 107.85 115.018 108.218C115.134 108.586 115.304 108.862 115.528 109.046C115.756 109.23 116.034 109.322 116.362 109.322C116.722 109.322 117.028 109.22 117.28 109.016C117.536 108.812 117.748 108.582 117.916 108.326V105.17C117.744 104.914 117.536 104.716 117.292 104.576C117.048 104.432 116.78 104.36 116.488 104.36ZM133.206 110H131.778L130.962 105.362L130.074 110H128.682L127.53 103.682H128.562L129.366 109.376L130.374 104.486H131.568L132.522 109.376L133.326 103.682H134.31L133.206 110ZM138.128 103.55C138.724 103.55 139.222 103.686 139.622 103.958C140.026 104.226 140.328 104.606 140.528 105.098C140.732 105.59 140.834 106.17 140.834 106.838C140.834 107.482 140.73 108.052 140.522 108.548C140.314 109.044 140.008 109.434 139.604 109.718C139.204 109.998 138.708 110.138 138.116 110.138C137.524 110.138 137.026 110.002 136.622 109.73C136.218 109.458 135.912 109.076 135.704 108.584C135.5 108.088 135.398 107.51 135.398 106.85C135.398 106.198 135.502 105.624 135.71 105.128C135.918 104.632 136.224 104.246 136.628 103.97C137.036 103.69 137.536 103.55 138.128 103.55ZM138.128 104.372C137.584 104.372 137.172 104.574 136.892 104.978C136.616 105.378 136.478 106.002 136.478 106.85C136.478 107.682 136.614 108.3 136.886 108.704C137.162 109.108 137.572 109.31 138.116 109.31C138.66 109.31 139.068 109.108 139.34 108.704C139.616 108.3 139.754 107.678 139.754 106.838C139.754 105.998 139.618 105.378 139.346 104.978C139.074 104.574 138.668 104.372 138.128 104.372ZM142.977 110V109.226H143.961V104.456H142.977V103.682H144.729L144.915 105.176C145.159 104.656 145.455 104.254 145.803 103.97C146.151 103.686 146.611 103.544 147.183 103.544C147.359 103.544 147.515 103.558 147.651 103.586C147.791 103.61 147.933 103.642 148.077 103.682L147.783 104.582C147.651 104.546 147.531 104.52 147.423 104.504C147.315 104.484 147.191 104.474 147.051 104.474C146.567 104.474 146.151 104.646 145.803 104.99C145.455 105.334 145.177 105.854 144.969 106.55V109.226H146.253V110H142.977ZM147.105 105.818V104.444L147.207 103.682H148.077L147.933 105.818H147.105ZM155.404 103.682L152.56 106.526L155.734 110H154.408L151.3 106.55L154.096 103.682H155.404ZM151.186 101.012V110H150.178V101.138L151.186 101.012ZM159.456 109.304C159.94 109.304 160.322 109.214 160.602 109.034C160.886 108.85 161.028 108.606 161.028 108.302C161.028 108.11 160.992 107.944 160.92 107.804C160.852 107.664 160.71 107.538 160.494 107.426C160.278 107.314 159.946 107.202 159.498 107.09C159.062 106.982 158.682 106.858 158.358 106.718C158.038 106.574 157.788 106.388 157.608 106.16C157.432 105.932 157.344 105.636 157.344 105.272C157.344 104.916 157.444 104.61 157.644 104.354C157.848 104.094 158.13 103.896 158.49 103.76C158.85 103.62 159.268 103.55 159.744 103.55C160.252 103.55 160.694 103.618 161.07 103.754C161.45 103.886 161.772 104.05 162.036 104.246L161.592 104.93C161.352 104.766 161.088 104.632 160.8 104.528C160.512 104.42 160.164 104.366 159.756 104.366C159.26 104.366 158.908 104.444 158.7 104.6C158.492 104.752 158.388 104.95 158.388 105.194C158.388 105.378 158.438 105.532 158.538 105.656C158.642 105.776 158.816 105.886 159.06 105.986C159.304 106.082 159.64 106.188 160.068 106.304C160.48 106.412 160.838 106.542 161.142 106.694C161.45 106.846 161.69 107.046 161.862 107.294C162.034 107.542 162.12 107.862 162.12 108.254C162.12 108.702 161.992 109.066 161.736 109.346C161.48 109.622 161.148 109.824 160.74 109.952C160.336 110.076 159.908 110.138 159.456 110.138C158.884 110.138 158.396 110.056 157.992 109.892C157.592 109.724 157.256 109.522 156.984 109.286L157.56 108.62C157.808 108.824 158.092 108.99 158.412 109.118C158.736 109.242 159.084 109.304 159.456 109.304ZM167.329 103.55C167.889 103.55 168.335 103.686 168.667 103.958C169.003 104.23 169.245 104.614 169.393 105.11C169.541 105.602 169.615 106.178 169.615 106.838C169.615 107.474 169.525 108.042 169.345 108.542C169.169 109.038 168.901 109.428 168.541 109.712C168.181 109.996 167.727 110.138 167.179 110.138C166.487 110.138 165.931 109.894 165.511 109.406V112.418L164.503 112.544V103.682H165.361L165.445 104.564C165.677 104.24 165.953 103.99 166.273 103.814C166.597 103.638 166.949 103.55 167.329 103.55ZM167.089 104.36C166.741 104.36 166.433 104.466 166.165 104.678C165.901 104.886 165.683 105.118 165.511 105.374V108.506C165.675 108.75 165.881 108.944 166.129 109.088C166.381 109.228 166.657 109.298 166.957 109.298C167.481 109.298 167.875 109.098 168.139 108.698C168.403 108.298 168.535 107.676 168.535 106.832C168.535 106.28 168.483 105.822 168.379 105.458C168.275 105.09 168.117 104.816 167.905 104.636C167.693 104.452 167.421 104.36 167.089 104.36ZM176.222 108.62C176.222 108.872 176.264 109.056 176.348 109.172C176.432 109.288 176.562 109.374 176.738 109.43L176.492 110.138C176.22 110.102 175.982 110.016 175.778 109.88C175.574 109.74 175.426 109.53 175.334 109.25C175.106 109.542 174.822 109.764 174.482 109.916C174.142 110.064 173.766 110.138 173.354 110.138C172.722 110.138 172.224 109.96 171.86 109.604C171.496 109.248 171.314 108.776 171.314 108.188C171.314 107.536 171.568 107.036 172.076 106.688C172.584 106.34 173.318 106.166 174.278 106.166H175.208V105.638C175.208 105.182 175.074 104.86 174.806 104.672C174.542 104.48 174.174 104.384 173.702 104.384C173.494 104.384 173.25 104.41 172.97 104.462C172.69 104.51 172.386 104.592 172.058 104.708L171.794 103.946C172.182 103.802 172.546 103.7 172.886 103.64C173.226 103.58 173.55 103.55 173.858 103.55C174.646 103.55 175.236 103.734 175.628 104.102C176.024 104.466 176.222 104.962 176.222 105.59V108.62ZM173.612 109.37C173.924 109.37 174.222 109.292 174.506 109.136C174.79 108.976 175.024 108.756 175.208 108.476V106.85H174.296C173.6 106.85 173.108 106.97 172.82 107.21C172.536 107.45 172.394 107.772 172.394 108.176C172.394 108.568 172.494 108.866 172.694 109.07C172.898 109.27 173.204 109.37 173.612 109.37ZM181.75 109.268C182.066 109.268 182.36 109.216 182.632 109.112C182.908 109.008 183.162 108.876 183.394 108.716L183.885 109.376C183.61 109.612 183.278 109.798 182.89 109.934C182.502 110.07 182.122 110.138 181.75 110.138C181.122 110.138 180.586 110.004 180.142 109.736C179.702 109.464 179.366 109.084 179.134 108.596C178.902 108.104 178.786 107.528 178.786 106.868C178.786 106.236 178.902 105.67 179.134 105.17C179.37 104.666 179.708 104.27 180.148 103.982C180.592 103.694 181.13 103.55 181.762 103.55C182.166 103.55 182.544 103.612 182.896 103.736C183.252 103.856 183.578 104.038 183.874 104.282L183.382 104.954C183.114 104.766 182.844 104.626 182.572 104.534C182.304 104.438 182.03 104.39 181.75 104.39C181.206 104.39 180.758 104.594 180.406 105.002C180.054 105.41 179.878 106.032 179.878 106.868C179.878 107.428 179.958 107.886 180.118 108.242C180.282 108.594 180.504 108.854 180.784 109.022C181.068 109.186 181.39 109.268 181.75 109.268ZM186.881 107.198C186.901 107.686 186.995 108.086 187.163 108.398C187.331 108.706 187.553 108.934 187.829 109.082C188.105 109.226 188.405 109.298 188.729 109.298C189.053 109.298 189.345 109.25 189.605 109.154C189.869 109.058 190.139 108.916 190.415 108.728L190.889 109.394C190.593 109.626 190.255 109.808 189.875 109.94C189.499 110.072 189.113 110.138 188.717 110.138C188.105 110.138 187.583 110 187.151 109.724C186.719 109.448 186.389 109.064 186.161 108.572C185.937 108.076 185.825 107.502 185.825 106.85C185.825 106.21 185.939 105.642 186.167 105.146C186.395 104.65 186.715 104.26 187.127 103.976C187.539 103.692 188.025 103.55 188.585 103.55C189.117 103.55 189.575 103.676 189.959 103.928C190.343 104.176 190.637 104.532 190.841 104.996C191.049 105.456 191.153 106.006 191.153 106.646C191.153 106.754 191.151 106.856 191.147 106.952C191.143 107.044 191.137 107.126 191.129 107.198H186.881ZM188.597 104.378C188.129 104.378 187.737 104.544 187.421 104.876C187.109 105.208 186.931 105.722 186.887 106.418H190.181C190.169 105.742 190.021 105.234 189.737 104.894C189.453 104.55 189.073 104.378 188.597 104.378Z" fill="#B6D600"/>
</svg>
